<svg xmlns="http://www.w3.org/2000/svg" xmlns:xlink="http://www.w3.org/1999/xlink" width="48" height="48" viewBox="0 0 48 48">
    <defs>
        <linearGradient id="a" x1="3.669%" y1="50%" y2="50%">
            <stop offset="0%" stop-color="#FB7171"/>
            <stop offset="100%" stop-color="#FF2826"/>
        </linearGradient>
        <linearGradient id="d" x1="-46.388%" x2="60.889%" y1="157.829%" y2="20.854%">
            <stop offset="0%" stop-color="#FFD6BC"/>
            <stop offset="100%" stop-color="#FFF"/>
        </linearGradient>
        <path id="c" d="M9.027 0C6.73 0 4.86 1.746 4.86 3.892s1.87 3.892 4.167 3.892c2.298 0 4.167-1.746 4.167-3.892S11.325 0 9.027 0zM6.25 8.432c-2.268 0-3.098 1.827-3.299 2.392 0 0-2.16 6.17-2.778 7.967-.252.66-.176 1.345.217 1.864.28.37.695.614 1.172.71.277-1.591.754-2.942.781-3.02l.022-.04c.01-.026.027-.039.043-.062.009-.007.014-.033.022-.04a.35.35 0 0 1 .26-.102c.193 0 .348.145.348.325a.258.258 0 0 1-.022.121c-.046.132-.477 1.363-.738 2.798a11.62 11.62 0 0 0-.195 2.006c0 .36.312.649.694.649h12.502c.385 0 .694-.289.694-.649 0-.646-.081-1.327-.195-1.966-.258-1.454-.692-2.703-.738-2.838-.019-.04-.043-.073-.043-.121 0-.18.154-.325.347-.325a.35.35 0 0 1 .26.102c.009.007.017.033.022.04.016.023.033.036.043.061.006.01.02.03.022.04.027.08.505 1.427.782 3.02.48-.093.911-.336 1.193-.709.394-.519.464-1.203.217-1.844-.624-1.817-2.778-7.982-2.778-7.987-.2-.56-1.028-2.392-3.299-2.392H6.25zm2.778 4.541c2.3 0 4.167 1.743 4.167 3.892s-1.866 3.892-4.167 3.892c-2.3 0-4.167-1.743-4.167-3.892s1.867-3.892 4.167-3.892zm-1.042 2.331c-.694 0-1.258.527-1.258 1.176 0 1.363 1.676 2.014 2.3 2.534.624-.454 2.3-1.171 2.3-2.534 0-.649-.564-1.176-1.258-1.176-.418 0-.833.203-1.042.527-.209-.324-.624-.527-1.042-.527z"/>
        <filter id="b" width="177.8%" height="158.3%" x="-38.9%" y="-20.8%" filterUnits="objectBoundingBox">
            <feOffset dy="2" in="SourceAlpha" result="shadowOffsetOuter1"/>
            <feGaussianBlur in="shadowOffsetOuter1" result="shadowBlurOuter1" stdDeviation="2"/>
            <feColorMatrix in="shadowBlurOuter1" values="0 0 0 0 1 0 0 0 0 0.156862745 0 0 0 0 0.133333333 0 0 0 1 0"/>
        </filter>
    </defs>
    <g fill="none" fill-rule="evenodd">
        <circle cx="24" cy="24" r="24" fill="url(#a)"/>
        <g fill-rule="nonzero" transform="translate(15 12)">
            <use fill="#000" filter="url(#b)" xlink:href="#c"/>
            <use fill="url(#d)" fill-rule="evenodd" xlink:href="#c"/>
        </g>
    </g>
</svg>
