<svg xmlns="http://www.w3.org/2000/svg" xmlns:xlink="http://www.w3.org/1999/xlink" width="48" height="48" viewBox="0 0 48 48">
    <defs>
        <linearGradient id="a" x1="0%" y1="50%" y2="50%">
            <stop offset="0%" stop-color="#FFB46D"/>
            <stop offset="100%" stop-color="#F76B1C"/>
        </linearGradient>
        <linearGradient id="d" x1="-49.609%" x2="60.889%" y1="161.943%" y2="20.854%">
            <stop offset="0%" stop-color="#FFE8BC"/>
            <stop offset="100%" stop-color="#FFF"/>
        </linearGradient>
        <path id="c" d="M9.419 0c-2.603 0-4.71 2.147-4.71 4.8s2.107 4.8 4.71 4.8c2.603 0 4.71-2.147 4.71-4.8S12.021 0 9.418 0zm-5.04 6c-.626.047-2.02.258-3.018 1.275C.032 8.63 0 10.8 0 10.8s2.13-.033 3.459-1.388C4.788 8.058 4.709 6 4.709 6s-.124-.014-.33 0zm4.856 4.8C4.139 10.8 0 15.019 0 20.212V24h3.826l2.429-2.475c.892-.91 2.13-1.205 3.274-.938a3.188 3.188 0 0 1-.11-.787c0-1.66 1.315-3 2.943-3 1.628 0 2.944 1.34 2.944 3s-1.316 3-2.944 3c-.11 0-.22-.023-.33-.038.151.394.21.82.22 1.238h4.231l2.723-2.363a2.27 2.27 0 0 0 .515-2.812L18.286 16.2c-1.84-3.337-5.294-5.4-9.051-5.4z"/>
        <filter id="b" width="170%" height="158.3%" x="-35%" y="-20.8%" filterUnits="objectBoundingBox">
            <feOffset dy="2" in="SourceAlpha" result="shadowOffsetOuter1"/>
            <feGaussianBlur in="shadowOffsetOuter1" result="shadowBlurOuter1" stdDeviation="2"/>
            <feColorMatrix in="shadowBlurOuter1" values="0 0 0 0 0.980392157 0 0 0 0 0.411764706 0 0 0 0 0.0745098039 0 0 0 1 0"/>
        </filter>
    </defs>
    <g fill="none" fill-rule="evenodd">
        <circle cx="24" cy="24" r="24" fill="url(#a)"/>
        <g fill-rule="nonzero" transform="translate(15 11)">
            <use fill="#000" filter="url(#b)" xlink:href="#c"/>
            <use fill="url(#d)" fill-rule="evenodd" xlink:href="#c"/>
        </g>
    </g>
</svg>
