<svg xmlns="http://www.w3.org/2000/svg" width="26" height="24" viewBox="0 0 26 24">
    <g fill="none" fill-rule="evenodd">
        <path d="M0 0h24v24H0z"/>
        <path fill="#FFF" fill-rule="nonzero" d="M.942 0a.923.923 0 0 0-.815.476.988.988 0 0 0 0 .968c.168.3.48.481.815.476h1.744c.21 0 .385.136.445.345l3.957 13.909c.347 1.22 1.44 2.066 2.672 2.066h10.192c1.252 0 2.358-.875 2.688-2.122l2.412-9.145a.986.986 0 0 0-.158-.835c-.175-.238-.487-1.132-.776-1.132H6.145L4.914 1.723C4.622.706 3.712 0 2.686 0H.942zm9.286 20.16c-1.026 0-1.858.86-1.858 1.92S9.202 24 10.228 24c1.025 0 1.857-.86 1.857-1.92s-.832-1.92-1.857-1.92zm9.285 0c-1.025 0-1.857.86-1.857 1.92S18.488 24 19.513 24c1.026 0 1.857-.86 1.857-1.92s-.831-1.92-1.857-1.92z"/>
        <rect width="12" height="1" x="9" y="8" fill="#0098CC" rx=".5"/>
        <rect width="9" height="1" x="10" y="11" fill="#0098CC" rx=".5"/>
        <rect width="7" height="1" x="11" y="14" fill="#0098CC" rx=".5"/>
    </g>
</svg>
