<svg xmlns="http://www.w3.org/2000/svg" xmlns:xlink="http://www.w3.org/1999/xlink" width="48" height="48" viewBox="0 0 48 48">
    <defs>
        <linearGradient id="a" x1="0%" y1="50%" y2="50%">
            <stop offset="0%" stop-color="#FFCA00"/>
            <stop offset="100%" stop-color="#FF9400"/>
        </linearGradient>
        <linearGradient id="d" x1="-49.609%" x2="60.889%" y1="161.943%" y2="20.854%">
            <stop offset="0%" stop-color="#F2D8A8"/>
            <stop offset="100%" stop-color="#FFF"/>
        </linearGradient>
        <path id="c" d="M6.6 0c-.708 0-.938.206-1.313.412a9.02 9.02 0 0 0-1.125.75c-.38.291-.74.596-1.05.938-.309.342-.712.652-.712 1.5 0 1.158.614 1.983 1.238 2.663.309.337.632.623.974.862.24.169.493.31.788.412-.005.085 0 .174 0 .263 0 .9.188 1.763.525 2.55L1.425 12c-1.078.36-1.673 1.697-1.313 2.775A2.136 2.136 0 0 0 2.625 16.2l2.175-.6c1.322-.24 5.536.36 4.575 7.2 0 0 1.064 1.2 2.625 1.2 1.56 0 2.625-1.2 2.625-1.2-.96-6.84 3.253-7.44 4.575-7.2l2.175.6a2.136 2.136 0 0 0 2.512-1.425c.361-1.078-.234-2.414-1.312-2.775l-4.5-1.65c.338-.787.525-1.65.525-2.55 0-.136-.028-.277-.038-.412.291-.104.549-.211.788-.375a6.37 6.37 0 0 0 .975-.863c.619-.656 1.275-1.388 1.275-2.55 0-.848-.403-1.158-.713-1.5a7.759 7.759 0 0 0-1.05-.938 9.02 9.02 0 0 0-1.125-.75C18.337.206 18.108 0 17.4 0c-.96 0-1.486.51-1.912.9-.408.37-.722.755-.825.862A6.426 6.426 0 0 0 12 1.2c-.942 0-1.847.192-2.662.563-.104-.108-.418-.493-.825-.863C8.085.51 7.56 0 6.6 0zm0 2.475c.075.038.183.084.3.188.155.14.3.323.45.487a6.687 6.687 0 0 0-1.387 1.988A3.844 3.844 0 0 1 5.4 4.65c-.352-.384-.483-.806-.525-.938a5.42 5.42 0 0 1 .713-.637c.295-.22.618-.431.862-.563.052-.028.098-.023.15-.037zm10.8 0c.052.014.098.01.15.038.244.13.567.342.863.562.295.22.553.464.712.637-.042.061-.173.418-.525.788-.202.21-.422.44-.6.563a6.77 6.77 0 0 0-1.35-1.913c.15-.164.295-.347.45-.487.117-.104.225-.15.3-.188zm-5.4 2.7c2.16 0 3.975 1.777 3.975 3.938 0 2.16-1.814 3.975-3.975 3.975-2.16 0-3.975-1.815-3.975-3.975 0-2.161 1.814-3.938 3.975-3.938zm0 1.313c-.96 0-1.688.726-1.688 1.687 0 .96.727 1.65 1.688 1.65.96 0 1.688-.69 1.688-1.65S12.96 6.487 12 6.487zm-6.825 10.35c-.206.004-.39.014-.6.075-1.56.36-2.54 2.278-2.063 4.2.479 1.921 2.035 3.253 3.713 2.774 1.56-.36 2.54-2.278 2.063-4.2-.422-1.678-1.683-2.892-3.113-2.85zm13.65 0c-1.43-.043-2.69 1.171-3.112 2.85-.479 1.921.501 3.839 2.062 4.2 1.678.478 3.234-.854 3.713-2.776.478-1.921-.502-3.839-2.063-4.2-.21-.06-.394-.07-.6-.075z"/>
        <filter id="b" width="158.4%" height="158.3%" x="-29.2%" y="-20.8%" filterUnits="objectBoundingBox">
            <feOffset dy="2" in="SourceAlpha" result="shadowOffsetOuter1"/>
            <feGaussianBlur in="shadowOffsetOuter1" result="shadowBlurOuter1" stdDeviation="2"/>
            <feColorMatrix in="shadowBlurOuter1" values="0 0 0 0 1 0 0 0 0 0.556862745 0 0 0 0 0 0 0 0 1 0"/>
        </filter>
    </defs>
    <g fill="none" fill-rule="evenodd">
        <circle cx="24" cy="24" r="24" fill="url(#a)"/>
        <g fill-rule="nonzero" transform="translate(12 12)">
            <use fill="#000" filter="url(#b)" xlink:href="#c"/>
            <use fill="url(#d)" fill-rule="evenodd" xlink:href="#c"/>
        </g>
    </g>
</svg>
