<svg xmlns="http://www.w3.org/2000/svg" width="14" height="14" viewBox="0 0 14 14">
    <g fill="#4E5969" fill-rule="nonzero" stroke="#4E5969" opacity=".5">
        <path stroke-width=".2" d="M7 1C3.692 1 1 3.692 1 7s2.692 6 6 6 6-2.692 6-6-2.692-6-6-6zm0 11.6A5.606 5.606 0 0 1 1.4 7c0-3.088 2.512-5.6 5.6-5.6 3.088 0 5.6 2.512 5.6 5.6 0 3.088-2.512 5.6-5.6 5.6z"/>
        <path stroke-width=".5" d="M7.424 4.273c-.067 0-.121.075-.121.168V8.3H5.485c-.067 0-.121.075-.121.168 0 .092.054.167.12.167h1.94c.067 0 .121-.075.121-.167V4.44c0-.093-.054-.168-.12-.168z"/>
    </g>
</svg>
